<?xml version="1.0" encoding="UTF-8"?>
<svg xmlns="http://www.w3.org/2000/svg" width="1320" height="1110" viewBox="0 0 1320 1110">
<style>
text { font-family: 'PingFang SC', 'Microsoft YaHei', Arial, sans-serif; dominant-baseline: middle; }
.shadow { filter: drop-shadow(0 6px 16px rgba(15, 23, 42, 0.12)); }
</style>
<rect width="100%" height="100%" fill="#f6fbfd"/>
<text x="36.0" y="38.0" text-anchor="start" font-size="26" font-weight="800" fill="#102030">智慧园区 2D 路网方案图</text>
<text x="36.0" y="68.0" text-anchor="start" font-size="14" font-weight="500" fill="#52677a">紫色为公共道路；浅灰短线为建筑专属入口小径；红点为南侧门口收/取件点。</text>
<rect x="96.0" y="88.0" width="1000.0" height="900.0" rx="8" fill="#edf4ef" fill-opacity="1" stroke="#94a3b8" stroke-width="1.5" />
<line x1="96.0" y1="88.0" x2="96.0" y2="988.0" stroke="#d8e4eb" stroke-width="1" stroke-opacity="0.72"/>
<text x="96.0" y="65.0" text-anchor="middle" font-size="10" font-weight="500" fill="#64748b" >x=0</text>
<text x="96.0" y="1012.0" text-anchor="middle" font-size="10" font-weight="500" fill="#64748b" >x=0</text>
<line x1="196.0" y1="88.0" x2="196.0" y2="988.0" stroke="#d8e4eb" stroke-width="1" stroke-opacity="0.72"/>
<text x="196.0" y="65.0" text-anchor="middle" font-size="10" font-weight="500" fill="#64748b" >x=10</text>
<text x="196.0" y="1012.0" text-anchor="middle" font-size="10" font-weight="500" fill="#64748b" >x=10</text>
<line x1="296.0" y1="88.0" x2="296.0" y2="988.0" stroke="#d8e4eb" stroke-width="1" stroke-opacity="0.72"/>
<text x="296.0" y="65.0" text-anchor="middle" font-size="10" font-weight="500" fill="#64748b" >x=20</text>
<text x="296.0" y="1012.0" text-anchor="middle" font-size="10" font-weight="500" fill="#64748b" >x=20</text>
<line x1="396.0" y1="88.0" x2="396.0" y2="988.0" stroke="#d8e4eb" stroke-width="1" stroke-opacity="0.72"/>
<text x="396.0" y="65.0" text-anchor="middle" font-size="10" font-weight="500" fill="#64748b" >x=30</text>
<text x="396.0" y="1012.0" text-anchor="middle" font-size="10" font-weight="500" fill="#64748b" >x=30</text>
<line x1="496.0" y1="88.0" x2="496.0" y2="988.0" stroke="#d8e4eb" stroke-width="1" stroke-opacity="0.72"/>
<text x="496.0" y="65.0" text-anchor="middle" font-size="10" font-weight="500" fill="#64748b" >x=40</text>
<text x="496.0" y="1012.0" text-anchor="middle" font-size="10" font-weight="500" fill="#64748b" >x=40</text>
<line x1="596.0" y1="88.0" x2="596.0" y2="988.0" stroke="#d8e4eb" stroke-width="1" stroke-opacity="0.72"/>
<text x="596.0" y="65.0" text-anchor="middle" font-size="10" font-weight="500" fill="#64748b" >x=50</text>
<text x="596.0" y="1012.0" text-anchor="middle" font-size="10" font-weight="500" fill="#64748b" >x=50</text>
<line x1="696.0" y1="88.0" x2="696.0" y2="988.0" stroke="#d8e4eb" stroke-width="1" stroke-opacity="0.72"/>
<text x="696.0" y="65.0" text-anchor="middle" font-size="10" font-weight="500" fill="#64748b" >x=60</text>
<text x="696.0" y="1012.0" text-anchor="middle" font-size="10" font-weight="500" fill="#64748b" >x=60</text>
<line x1="796.0" y1="88.0" x2="796.0" y2="988.0" stroke="#d8e4eb" stroke-width="1" stroke-opacity="0.72"/>
<text x="796.0" y="65.0" text-anchor="middle" font-size="10" font-weight="500" fill="#64748b" >x=70</text>
<text x="796.0" y="1012.0" text-anchor="middle" font-size="10" font-weight="500" fill="#64748b" >x=70</text>
<line x1="896.0" y1="88.0" x2="896.0" y2="988.0" stroke="#d8e4eb" stroke-width="1" stroke-opacity="0.72"/>
<text x="896.0" y="65.0" text-anchor="middle" font-size="10" font-weight="500" fill="#64748b" >x=80</text>
<text x="896.0" y="1012.0" text-anchor="middle" font-size="10" font-weight="500" fill="#64748b" >x=80</text>
<line x1="996.0" y1="88.0" x2="996.0" y2="988.0" stroke="#d8e4eb" stroke-width="1" stroke-opacity="0.72"/>
<text x="996.0" y="65.0" text-anchor="middle" font-size="10" font-weight="500" fill="#64748b" >x=90</text>
<text x="996.0" y="1012.0" text-anchor="middle" font-size="10" font-weight="500" fill="#64748b" >x=90</text>
<line x1="1096.0" y1="88.0" x2="1096.0" y2="988.0" stroke="#d8e4eb" stroke-width="1" stroke-opacity="0.72"/>
<text x="1096.0" y="65.0" text-anchor="middle" font-size="10" font-weight="500" fill="#64748b" >x=100</text>
<text x="1096.0" y="1012.0" text-anchor="middle" font-size="10" font-weight="500" fill="#64748b" >x=100</text>
<line x1="96.0" y1="88.0" x2="1096.0" y2="88.0" stroke="#d8e4eb" stroke-width="1" stroke-opacity="0.72"/>
<text x="64.0" y="88.0" text-anchor="middle" font-size="10" font-weight="500" fill="#64748b" >y=0</text>
<text x="1128.0" y="88.0" text-anchor="middle" font-size="10" font-weight="500" fill="#64748b" >y=0</text>
<line x1="96.0" y1="188.0" x2="1096.0" y2="188.0" stroke="#d8e4eb" stroke-width="1" stroke-opacity="0.72"/>
<text x="64.0" y="188.0" text-anchor="middle" font-size="10" font-weight="500" fill="#64748b" >y=10</text>
<text x="1128.0" y="188.0" text-anchor="middle" font-size="10" font-weight="500" fill="#64748b" >y=10</text>
<line x1="96.0" y1="288.0" x2="1096.0" y2="288.0" stroke="#d8e4eb" stroke-width="1" stroke-opacity="0.72"/>
<text x="64.0" y="288.0" text-anchor="middle" font-size="10" font-weight="500" fill="#64748b" >y=20</text>
<text x="1128.0" y="288.0" text-anchor="middle" font-size="10" font-weight="500" fill="#64748b" >y=20</text>
<line x1="96.0" y1="388.0" x2="1096.0" y2="388.0" stroke="#d8e4eb" stroke-width="1" stroke-opacity="0.72"/>
<text x="64.0" y="388.0" text-anchor="middle" font-size="10" font-weight="500" fill="#64748b" >y=30</text>
<text x="1128.0" y="388.0" text-anchor="middle" font-size="10" font-weight="500" fill="#64748b" >y=30</text>
<line x1="96.0" y1="488.0" x2="1096.0" y2="488.0" stroke="#d8e4eb" stroke-width="1" stroke-opacity="0.72"/>
<text x="64.0" y="488.0" text-anchor="middle" font-size="10" font-weight="500" fill="#64748b" >y=40</text>
<text x="1128.0" y="488.0" text-anchor="middle" font-size="10" font-weight="500" fill="#64748b" >y=40</text>
<line x1="96.0" y1="588.0" x2="1096.0" y2="588.0" stroke="#d8e4eb" stroke-width="1" stroke-opacity="0.72"/>
<text x="64.0" y="588.0" text-anchor="middle" font-size="10" font-weight="500" fill="#64748b" >y=50</text>
<text x="1128.0" y="588.0" text-anchor="middle" font-size="10" font-weight="500" fill="#64748b" >y=50</text>
<line x1="96.0" y1="688.0" x2="1096.0" y2="688.0" stroke="#d8e4eb" stroke-width="1" stroke-opacity="0.72"/>
<text x="64.0" y="688.0" text-anchor="middle" font-size="10" font-weight="500" fill="#64748b" >y=60</text>
<text x="1128.0" y="688.0" text-anchor="middle" font-size="10" font-weight="500" fill="#64748b" >y=60</text>
<line x1="96.0" y1="788.0" x2="1096.0" y2="788.0" stroke="#d8e4eb" stroke-width="1" stroke-opacity="0.72"/>
<text x="64.0" y="788.0" text-anchor="middle" font-size="10" font-weight="500" fill="#64748b" >y=70</text>
<text x="1128.0" y="788.0" text-anchor="middle" font-size="10" font-weight="500" fill="#64748b" >y=70</text>
<line x1="96.0" y1="888.0" x2="1096.0" y2="888.0" stroke="#d8e4eb" stroke-width="1" stroke-opacity="0.72"/>
<text x="64.0" y="888.0" text-anchor="middle" font-size="10" font-weight="500" fill="#64748b" >y=80</text>
<text x="1128.0" y="888.0" text-anchor="middle" font-size="10" font-weight="500" fill="#64748b" >y=80</text>
<line x1="96.0" y1="988.0" x2="1096.0" y2="988.0" stroke="#d8e4eb" stroke-width="1" stroke-opacity="0.72"/>
<text x="64.0" y="988.0" text-anchor="middle" font-size="10" font-weight="500" fill="#64748b" >y=90</text>
<text x="1128.0" y="988.0" text-anchor="middle" font-size="10" font-weight="500" fill="#64748b" >y=90</text>
<text x="596.0" y="35.0" text-anchor="middle" font-size="15" font-weight="800" fill="#0f172a" >北 N / y=0</text>
<text x="596.0" y="1050.0" text-anchor="middle" font-size="15" font-weight="800" fill="#0f172a" >南 S / y=90</text>
<text x="30.0" y="538.0" text-anchor="middle" font-size="15" font-weight="800" fill="#0f172a" >西 W</text>
<text x="1161.0" y="538.0" text-anchor="middle" font-size="15" font-weight="800" fill="#0f172a" >东 E</text>
<rect x="160.0" y="158.0" width="272.0" height="770.0" rx="5" fill="#e9eef2" fill-opacity="0.62" stroke="#cbd5e1" stroke-width="1" />
<rect x="476.0" y="153.0" width="300.0" height="790.0" rx="5" fill="#eef4ef" fill-opacity="0.72" stroke="#d3ded8" stroke-width="1" />
<rect x="761.0" y="168.0" width="305.0" height="750.0" rx="5" fill="#bde5ad" fill-opacity="0.42" stroke="#8fc985" stroke-width="1" />
<rect x="491.0" y="165.0" width="116.0" height="108.0" rx="5" fill="#bbf7d0" fill-opacity="0.28" stroke="#86c983" stroke-width="0.8" />
<rect x="646.0" y="165.0" width="116.0" height="108.0" rx="5" fill="#bbf7d0" fill-opacity="0.28" stroke="#86c983" stroke-width="0.8" />
<rect x="503.0" y="295.0" width="92.0" height="87.0" rx="5" fill="#bbf7d0" fill-opacity="0.28" stroke="#86c983" stroke-width="0.8" />
<rect x="658.0" y="295.0" width="92.0" height="87.0" rx="5" fill="#bbf7d0" fill-opacity="0.28" stroke="#86c983" stroke-width="0.8" />
<rect x="481.5" y="675.5" width="123.0" height="93.0" rx="5" fill="#bbf7d0" fill-opacity="0.34" stroke="#86c983" stroke-width="0.8" />
<rect x="641.5" y="675.5" width="123.0" height="93.0" rx="5" fill="#bbf7d0" fill-opacity="0.34" stroke="#86c983" stroke-width="0.8" />
<rect x="454.0" y="808.0" width="318.0" height="138.0" rx="6" fill="#bbf7d0" fill-opacity="0.2" stroke="#65a96f" stroke-width="1" stroke-dasharray="6 5" />
<rect x="468.0" y="882.0" width="98.0" height="52.0" rx="4" fill="#4b5563" fill-opacity="0.22" stroke="#475569" stroke-width="0.8" />
<text x="606.6" y="815.0" text-anchor="middle" font-size="8.6" font-weight="700" fill="#287045" >订车场场地 / 停车区</text>
<rect x="480.0" y="889.5" width="15.0" height="37.0" rx="1" fill="#f8fafc" fill-opacity="0.7" stroke="none" stroke-width="1" />
<rect x="505.0" y="889.5" width="15.0" height="37.0" rx="1" fill="#f8fafc" fill-opacity="0.7" stroke="none" stroke-width="1" />
<rect x="530.0" y="889.5" width="15.0" height="37.0" rx="1" fill="#f8fafc" fill-opacity="0.7" stroke="none" stroke-width="1" />
<rect x="555.0" y="889.5" width="15.0" height="37.0" rx="1" fill="#f8fafc" fill-opacity="0.7" stroke="none" stroke-width="1" />
<rect x="126.0" y="117.0" width="940.0" height="22.0" rx="3" fill="#6d5fd7" fill-opacity="0.52" stroke="#5548bb" stroke-width="0.8" />
<rect x="126.0" y="937.0" width="940.0" height="22.0" rx="3" fill="#6d5fd7" fill-opacity="0.52" stroke="#5548bb" stroke-width="0.8" />
<rect x="115.0" y="128.0" width="22.0" height="820.0" rx="3" fill="#6d5fd7" fill-opacity="0.52" stroke="#5548bb" stroke-width="0.8" />
<rect x="1055.0" y="128.0" width="22.0" height="820.0" rx="3" fill="#6d5fd7" fill-opacity="0.52" stroke="#5548bb" stroke-width="0.8" />
<rect x="453.0" y="128.0" width="22.0" height="820.0" rx="3" fill="#6d5fd7" fill-opacity="0.52" stroke="#5548bb" stroke-width="0.8" />
<rect x="126.0" y="378.0" width="338.0" height="20.0" rx="3" fill="#6d5fd7" fill-opacity="0.52" stroke="#5548bb" stroke-width="0.8" />
<rect x="126.0" y="553.0" width="338.0" height="20.0" rx="3" fill="#6d5fd7" fill-opacity="0.52" stroke="#5548bb" stroke-width="0.8" />
<rect x="126.0" y="732.0" width="338.0" height="20.0" rx="3" fill="#6d5fd7" fill-opacity="0.52" stroke="#5548bb" stroke-width="0.8" />
<rect x="612.0" y="128.0" width="20.0" height="275.0" rx="3" fill="#6d5fd7" fill-opacity="0.52" stroke="#5548bb" stroke-width="0.8" />
<rect x="759.0" y="128.0" width="22.0" height="820.0" rx="3" fill="#6d5fd7" fill-opacity="0.52" stroke="#5548bb" stroke-width="0.8" />
<rect x="464.0" y="282.0" width="306.0" height="20.0" rx="3" fill="#6d5fd7" fill-opacity="0.52" stroke="#5548bb" stroke-width="0.8" />
<rect x="464.0" y="394.0" width="306.0" height="20.0" rx="3" fill="#6d5fd7" fill-opacity="0.52" stroke="#5548bb" stroke-width="0.8" />
<rect x="464.0" y="651.0" width="306.0" height="20.0" rx="3" fill="#6d5fd7" fill-opacity="0.52" stroke="#5548bb" stroke-width="0.8" />
<rect x="464.0" y="780.0" width="306.0" height="20.0" rx="3" fill="#6d5fd7" fill-opacity="0.52" stroke="#5548bb" stroke-width="0.8" />
<rect x="907.0" y="128.0" width="20.0" height="365.0" rx="3" fill="#6d5fd7" fill-opacity="0.52" stroke="#5548bb" stroke-width="0.8" />
<rect x="770.0" y="318.0" width="296.0" height="20.0" rx="3" fill="#6d5fd7" fill-opacity="0.52" stroke="#5548bb" stroke-width="0.8" />
<rect x="770.0" y="482.5" width="296.0" height="21.0" rx="3" fill="#6d5fd7" fill-opacity="0.52" stroke="#5548bb" stroke-width="0.8" />
<rect x="859.0" y="493.0" width="18.0" height="455.0" rx="3" fill="#6d5fd7" fill-opacity="0.52" stroke="#5548bb" stroke-width="0.8" />
<rect x="947.0" y="493.0" width="18.0" height="455.0" rx="3" fill="#6d5fd7" fill-opacity="0.52" stroke="#5548bb" stroke-width="0.8" />
<rect x="770.0" y="628.0" width="296.0" height="20.0" rx="3" fill="#6d5fd7" fill-opacity="0.52" stroke="#5548bb" stroke-width="0.8" />
<rect x="770.0" y="780.0" width="296.0" height="20.0" rx="3" fill="#6d5fd7" fill-opacity="0.52" stroke="#5548bb" stroke-width="0.8" />
<rect x="496.0" y="418.0" width="250.0" height="220.0" rx="7" fill="#7acb82" fill-opacity="0.84" stroke="#438653" stroke-width="1.6" />
<text x="621.0" y="528.0" text-anchor="middle" font-size="13" font-weight="800" fill="#11431e" >中央公园</text>
<line x1="293.5" y1="376.2" x2="293.5" y2="388.0" stroke="#cfd8e3" stroke-width="3.0" stroke-opacity="0.72"/>
<circle cx="293.5" cy="376.2" r="6.2" fill="#ef4444" fill-opacity="0.9" stroke="#ffffff" stroke-width="1.8"/>
<line x1="291.0" y1="550.0" x2="291.0" y2="563.0" stroke="#cfd8e3" stroke-width="3.0" stroke-opacity="0.72"/>
<circle cx="291.0" cy="550.0" r="6.2" fill="#ef4444" fill-opacity="0.9" stroke="#ffffff" stroke-width="1.8"/>
<line x1="290.0" y1="730.0" x2="290.0" y2="742.0" stroke="#cfd8e3" stroke-width="3.0" stroke-opacity="0.72"/>
<circle cx="290.0" cy="730.0" r="6.2" fill="#ef4444" fill-opacity="0.9" stroke="#ffffff" stroke-width="1.8"/>
<line x1="291.0" y1="880.0" x2="291.0" y2="948.0" stroke="#cfd8e3" stroke-width="3.0" stroke-opacity="0.72"/>
<circle cx="291.0" cy="880.0" r="6.2" fill="#ef4444" fill-opacity="0.9" stroke="#ffffff" stroke-width="1.8"/>
<line x1="549.0" y1="270.5" x2="549.0" y2="292.0" stroke="#cfd8e3" stroke-width="3.0" stroke-opacity="0.72"/>
<circle cx="549.0" cy="270.5" r="6.2" fill="#ef4444" fill-opacity="0.9" stroke="#ffffff" stroke-width="1.8"/>
<line x1="704.0" y1="270.5" x2="704.0" y2="292.0" stroke="#cfd8e3" stroke-width="3.0" stroke-opacity="0.72"/>
<circle cx="704.0" cy="270.5" r="6.2" fill="#ef4444" fill-opacity="0.9" stroke="#ffffff" stroke-width="1.8"/>
<line x1="549.0" y1="379.5" x2="549.0" y2="404.0" stroke="#cfd8e3" stroke-width="3.0" stroke-opacity="0.72"/>
<circle cx="549.0" cy="379.5" r="6.2" fill="#ef4444" fill-opacity="0.9" stroke="#ffffff" stroke-width="1.8"/>
<line x1="704.0" y1="379.5" x2="704.0" y2="404.0" stroke="#cfd8e3" stroke-width="3.0" stroke-opacity="0.72"/>
<circle cx="704.0" cy="379.5" r="6.2" fill="#ef4444" fill-opacity="0.9" stroke="#ffffff" stroke-width="1.8"/>
<line x1="543.0" y1="766.5" x2="543.0" y2="790.0" stroke="#cfd8e3" stroke-width="3.0" stroke-opacity="0.72"/>
<circle cx="543.0" cy="766.5" r="6.2" fill="#ef4444" fill-opacity="0.9" stroke="#ffffff" stroke-width="1.8"/>
<line x1="703.0" y1="766.5" x2="703.0" y2="790.0" stroke="#cfd8e3" stroke-width="3.0" stroke-opacity="0.72"/>
<circle cx="703.0" cy="766.5" r="6.2" fill="#ef4444" fill-opacity="0.9" stroke="#ffffff" stroke-width="1.8"/>
<line x1="667.0" y1="942.5" x2="667.0" y2="948.0" stroke="#cfd8e3" stroke-width="3.0" stroke-opacity="0.72"/>
<circle cx="667.0" cy="942.5" r="6.2" fill="#ef4444" fill-opacity="0.9" stroke="#ffffff" stroke-width="1.8"/>
<line x1="832.0" y1="270.5" x2="832.0" y2="328.0" stroke="#cfd8e3" stroke-width="3.0" stroke-opacity="0.72"/>
<circle cx="832.0" cy="270.5" r="6.2" fill="#ef4444" fill-opacity="0.9" stroke="#ffffff" stroke-width="1.8"/>
<line x1="992.0" y1="270.5" x2="992.0" y2="328.0" stroke="#cfd8e3" stroke-width="3.0" stroke-opacity="0.72"/>
<circle cx="992.0" cy="270.5" r="6.2" fill="#ef4444" fill-opacity="0.9" stroke="#ffffff" stroke-width="1.8"/>
<line x1="832.0" y1="435.5" x2="832.0" y2="493.0" stroke="#cfd8e3" stroke-width="3.0" stroke-opacity="0.72"/>
<circle cx="832.0" cy="435.5" r="6.2" fill="#ef4444" fill-opacity="0.9" stroke="#ffffff" stroke-width="1.8"/>
<line x1="992.0" y1="435.5" x2="992.0" y2="493.0" stroke="#cfd8e3" stroke-width="3.0" stroke-opacity="0.72"/>
<circle cx="992.0" cy="435.5" r="6.2" fill="#ef4444" fill-opacity="0.9" stroke="#ffffff" stroke-width="1.8"/>
<line x1="823.5" y1="578.5" x2="823.5" y2="638.0" stroke="#cfd8e3" stroke-width="3.0" stroke-opacity="0.72"/>
<circle cx="823.5" cy="578.5" r="6.2" fill="#ef4444" fill-opacity="0.9" stroke="#ffffff" stroke-width="1.8"/>
<line x1="914.5" y1="578.5" x2="914.5" y2="638.0" stroke="#cfd8e3" stroke-width="3.0" stroke-opacity="0.72"/>
<circle cx="914.5" cy="578.5" r="6.2" fill="#ef4444" fill-opacity="0.9" stroke="#ffffff" stroke-width="1.8"/>
<line x1="997.5" y1="578.5" x2="997.5" y2="638.0" stroke="#cfd8e3" stroke-width="3.0" stroke-opacity="0.72"/>
<circle cx="997.5" cy="578.5" r="6.2" fill="#ef4444" fill-opacity="0.9" stroke="#ffffff" stroke-width="1.8"/>
<line x1="823.5" y1="745.5" x2="823.5" y2="790.0" stroke="#cfd8e3" stroke-width="3.0" stroke-opacity="0.72"/>
<circle cx="823.5" cy="745.5" r="6.2" fill="#ef4444" fill-opacity="0.9" stroke="#ffffff" stroke-width="1.8"/>
<line x1="914.5" y1="745.5" x2="914.5" y2="790.0" stroke="#cfd8e3" stroke-width="3.0" stroke-opacity="0.72"/>
<circle cx="914.5" cy="745.5" r="6.2" fill="#ef4444" fill-opacity="0.9" stroke="#ffffff" stroke-width="1.8"/>
<line x1="997.5" y1="745.5" x2="997.5" y2="790.0" stroke="#cfd8e3" stroke-width="3.0" stroke-opacity="0.72"/>
<circle cx="997.5" cy="745.5" r="6.2" fill="#ef4444" fill-opacity="0.9" stroke="#ffffff" stroke-width="1.8"/>
<line x1="823.5" y1="898.5" x2="823.5" y2="948.0" stroke="#cfd8e3" stroke-width="3.0" stroke-opacity="0.72"/>
<circle cx="823.5" cy="898.5" r="6.2" fill="#ef4444" fill-opacity="0.9" stroke="#ffffff" stroke-width="1.8"/>
<line x1="914.5" y1="898.5" x2="914.5" y2="948.0" stroke="#cfd8e3" stroke-width="3.0" stroke-opacity="0.72"/>
<circle cx="914.5" cy="898.5" r="6.2" fill="#ef4444" fill-opacity="0.9" stroke="#ffffff" stroke-width="1.8"/>
<line x1="997.5" y1="898.5" x2="997.5" y2="948.0" stroke="#cfd8e3" stroke-width="3.0" stroke-opacity="0.72"/>
<circle cx="997.5" cy="898.5" r="6.2" fill="#ef4444" fill-opacity="0.9" stroke="#ffffff" stroke-width="1.8"/>
<rect x="132.2" y="139.2" width="322.5" height="232.5" rx="4" fill="#cbd5e1" fill-opacity="1" stroke="#64748b" stroke-width="1.2" />
<text x="293.5" y="252.0" text-anchor="middle" font-size="11" font-weight="800" fill="#111827" >写字楼</text>
<text x="293.5" y="266.0" text-anchor="middle" font-size="7.5" font-weight="500" fill="#475569" >west_office</text>
<rect x="133.5" y="368.5" width="315.0" height="177.0" rx="4" fill="#cbd5e1" fill-opacity="1" stroke="#64748b" stroke-width="1.2" />
<text x="291.0" y="453.5" text-anchor="middle" font-size="11" font-weight="800" fill="#111827" >图书馆</text>
<text x="291.0" y="467.5" text-anchor="middle" font-size="7.5" font-weight="500" fill="#475569" >west_library</text>
<rect x="164.0" y="584.5" width="252.0" height="141.0" rx="4" fill="#cbd5e1" fill-opacity="1" stroke="#64748b" stroke-width="1.2" />
<text x="290.0" y="651.5" text-anchor="middle" font-size="11" font-weight="800" fill="#111827" >物业中心</text>
<text x="290.0" y="665.5" text-anchor="middle" font-size="7.5" font-weight="500" fill="#475569" >west_property_center</text>
<rect x="133.5" y="746.5" width="315.0" height="129.0" rx="4" fill="#cbd5e1" fill-opacity="1" stroke="#64748b" stroke-width="1.2" />
<text x="291.0" y="807.5" text-anchor="middle" font-size="11" font-weight="800" fill="#111827" >物流中心</text>
<text x="291.0" y="821.5" text-anchor="middle" font-size="7.5" font-weight="500" fill="#475569" >west_logistics_center</text>
<rect x="498.0" y="172.0" width="102.0" height="94.0" rx="4" fill="#fef3c7" fill-opacity="1" stroke="#d97706" stroke-width="1.2" />
<text x="549.0" y="215.5" text-anchor="middle" font-size="11" font-weight="800" fill="#111827" >日本料理</text>
<text x="549.0" y="229.5" text-anchor="middle" font-size="7.5" font-weight="500" fill="#475569" >food_japanese_cuisine</text>
<rect x="653.0" y="172.0" width="102.0" height="94.0" rx="4" fill="#fef3c7" fill-opacity="1" stroke="#d97706" stroke-width="1.2" />
<text x="704.0" y="215.5" text-anchor="middle" font-size="11" font-weight="800" fill="#111827" >巴黎餐厅</text>
<text x="704.0" y="229.5" text-anchor="middle" font-size="7.5" font-weight="500" fill="#475569" >food_paris_restaurant</text>
<rect x="510.0" y="302.0" width="78.0" height="73.0" rx="4" fill="#fef3c7" fill-opacity="1" stroke="#d97706" stroke-width="1.2" />
<text x="549.0" y="335.0" text-anchor="middle" font-size="11" font-weight="800" fill="#111827" >日本拉面</text>
<text x="549.0" y="349.0" text-anchor="middle" font-size="7.5" font-weight="500" fill="#475569" >food_japanese_ramen</text>
<rect x="665.0" y="302.0" width="78.0" height="73.0" rx="4" fill="#fef3c7" fill-opacity="1" stroke="#d97706" stroke-width="1.2" />
<text x="704.0" y="335.0" text-anchor="middle" font-size="11" font-weight="800" fill="#111827" >韩国三熙饭店</text>
<text x="704.0" y="349.0" text-anchor="middle" font-size="7.5" font-weight="500" fill="#475569" >food_samhui_restaurant</text>
<rect x="488.0" y="682.0" width="110.0" height="80.0" rx="4" fill="#fef3c7" fill-opacity="1" stroke="#d97706" stroke-width="1.2" />
<text x="543.0" y="718.5" text-anchor="middle" font-size="11" font-weight="800" fill="#111827" >日本小商贩</text>
<text x="543.0" y="732.5" text-anchor="middle" font-size="7.5" font-weight="500" fill="#475569" >food_japanese_vendor</text>
<rect x="648.0" y="682.0" width="110.0" height="80.0" rx="4" fill="#fef3c7" fill-opacity="1" stroke="#d97706" stroke-width="1.2" />
<text x="703.0" y="718.5" text-anchor="middle" font-size="11" font-weight="800" fill="#111827" >韩国糕点店</text>
<text x="703.0" y="732.5" text-anchor="middle" font-size="7.5" font-weight="500" fill="#475569" >food_korean_bakery</text>
<rect x="574.0" y="818.0" width="186.0" height="120.0" rx="4" fill="#fef3c7" fill-opacity="1" stroke="#d97706" stroke-width="1.2" />
<text x="667.0" y="874.5" text-anchor="middle" font-size="11" font-weight="800" fill="#111827" >订车场饭店</text>
<text x="667.0" y="888.5" text-anchor="middle" font-size="7.5" font-weight="500" fill="#475569" >food_booking_lot_restaurant</text>
<rect x="786.0" y="203.0" width="92.0" height="63.0" rx="4" fill="#dbeafe" fill-opacity="1" stroke="#3b82f6" stroke-width="1.2" />
<text x="832.0" y="234.5" text-anchor="middle" font-size="9" font-weight="800" fill="#111827" >A1</text>
<rect x="946.0" y="203.0" width="92.0" height="63.0" rx="4" fill="#dbeafe" fill-opacity="1" stroke="#3b82f6" stroke-width="1.2" />
<text x="992.0" y="234.5" text-anchor="middle" font-size="9" font-weight="800" fill="#111827" >A2</text>
<rect x="786.0" y="368.0" width="92.0" height="63.0" rx="4" fill="#dbeafe" fill-opacity="1" stroke="#3b82f6" stroke-width="1.2" />
<text x="832.0" y="399.5" text-anchor="middle" font-size="9" font-weight="800" fill="#111827" >A3</text>
<rect x="946.0" y="368.0" width="92.0" height="63.0" rx="4" fill="#dbeafe" fill-opacity="1" stroke="#3b82f6" stroke-width="1.2" />
<text x="992.0" y="399.5" text-anchor="middle" font-size="9" font-weight="800" fill="#111827" >A4</text>
<rect x="789.0" y="518.0" width="69.0" height="56.0" rx="4" fill="#e5e7eb" fill-opacity="1" stroke="#6b7280" stroke-width="1.2" />
<text x="823.5" y="546.0" text-anchor="middle" font-size="9" font-weight="800" fill="#111827" >B1</text>
<rect x="880.0" y="518.0" width="69.0" height="56.0" rx="4" fill="#e5e7eb" fill-opacity="1" stroke="#6b7280" stroke-width="1.2" />
<text x="914.5" y="546.0" text-anchor="middle" font-size="9" font-weight="800" fill="#111827" >B2</text>
<rect x="963.0" y="518.0" width="69.0" height="56.0" rx="4" fill="#e5e7eb" fill-opacity="1" stroke="#6b7280" stroke-width="1.2" />
<text x="997.5" y="546.0" text-anchor="middle" font-size="9" font-weight="800" fill="#111827" >B3</text>
<rect x="789.0" y="685.0" width="69.0" height="56.0" rx="4" fill="#e5e7eb" fill-opacity="1" stroke="#6b7280" stroke-width="1.2" />
<text x="823.5" y="713.0" text-anchor="middle" font-size="9" font-weight="800" fill="#111827" >B4</text>
<rect x="880.0" y="685.0" width="69.0" height="56.0" rx="4" fill="#e5e7eb" fill-opacity="1" stroke="#6b7280" stroke-width="1.2" />
<text x="914.5" y="713.0" text-anchor="middle" font-size="9" font-weight="800" fill="#111827" >B5</text>
<rect x="963.0" y="685.0" width="69.0" height="56.0" rx="4" fill="#e5e7eb" fill-opacity="1" stroke="#6b7280" stroke-width="1.2" />
<text x="997.5" y="713.0" text-anchor="middle" font-size="9" font-weight="800" fill="#111827" >B6</text>
<rect x="789.0" y="838.0" width="69.0" height="56.0" rx="4" fill="#e5e7eb" fill-opacity="1" stroke="#6b7280" stroke-width="1.2" />
<text x="823.5" y="866.0" text-anchor="middle" font-size="9" font-weight="800" fill="#111827" >B7</text>
<rect x="880.0" y="838.0" width="69.0" height="56.0" rx="4" fill="#e5e7eb" fill-opacity="1" stroke="#6b7280" stroke-width="1.2" />
<text x="914.5" y="866.0" text-anchor="middle" font-size="9" font-weight="800" fill="#111827" >B8</text>
<rect x="963.0" y="838.0" width="69.0" height="56.0" rx="4" fill="#e5e7eb" fill-opacity="1" stroke="#6b7280" stroke-width="1.2" />
<text x="997.5" y="866.0" text-anchor="middle" font-size="9" font-weight="800" fill="#111827" >B9</text>
<circle cx="293.5" cy="376.2" r="6.2" fill="#ef4444" fill-opacity="0.9" stroke="#ffffff" stroke-width="1.8"/>
<circle cx="291.0" cy="550.0" r="6.2" fill="#ef4444" fill-opacity="0.9" stroke="#ffffff" stroke-width="1.8"/>
<circle cx="290.0" cy="730.0" r="6.2" fill="#ef4444" fill-opacity="0.9" stroke="#ffffff" stroke-width="1.8"/>
<circle cx="291.0" cy="880.0" r="6.2" fill="#ef4444" fill-opacity="0.9" stroke="#ffffff" stroke-width="1.8"/>
<circle cx="549.0" cy="270.5" r="6.2" fill="#ef4444" fill-opacity="0.9" stroke="#ffffff" stroke-width="1.8"/>
<circle cx="704.0" cy="270.5" r="6.2" fill="#ef4444" fill-opacity="0.9" stroke="#ffffff" stroke-width="1.8"/>
<circle cx="549.0" cy="379.5" r="6.2" fill="#ef4444" fill-opacity="0.9" stroke="#ffffff" stroke-width="1.8"/>
<circle cx="704.0" cy="379.5" r="6.2" fill="#ef4444" fill-opacity="0.9" stroke="#ffffff" stroke-width="1.8"/>
<circle cx="543.0" cy="766.5" r="6.2" fill="#ef4444" fill-opacity="0.9" stroke="#ffffff" stroke-width="1.8"/>
<circle cx="703.0" cy="766.5" r="6.2" fill="#ef4444" fill-opacity="0.9" stroke="#ffffff" stroke-width="1.8"/>
<circle cx="667.0" cy="942.5" r="6.2" fill="#ef4444" fill-opacity="0.9" stroke="#ffffff" stroke-width="1.8"/>
<circle cx="832.0" cy="270.5" r="6.2" fill="#ef4444" fill-opacity="0.9" stroke="#ffffff" stroke-width="1.8"/>
<circle cx="992.0" cy="270.5" r="6.2" fill="#ef4444" fill-opacity="0.9" stroke="#ffffff" stroke-width="1.8"/>
<circle cx="832.0" cy="435.5" r="6.2" fill="#ef4444" fill-opacity="0.9" stroke="#ffffff" stroke-width="1.8"/>
<circle cx="992.0" cy="435.5" r="6.2" fill="#ef4444" fill-opacity="0.9" stroke="#ffffff" stroke-width="1.8"/>
<circle cx="823.5" cy="578.5" r="6.2" fill="#ef4444" fill-opacity="0.9" stroke="#ffffff" stroke-width="1.8"/>
<circle cx="914.5" cy="578.5" r="6.2" fill="#ef4444" fill-opacity="0.9" stroke="#ffffff" stroke-width="1.8"/>
<circle cx="997.5" cy="578.5" r="6.2" fill="#ef4444" fill-opacity="0.9" stroke="#ffffff" stroke-width="1.8"/>
<circle cx="823.5" cy="745.5" r="6.2" fill="#ef4444" fill-opacity="0.9" stroke="#ffffff" stroke-width="1.8"/>
<circle cx="914.5" cy="745.5" r="6.2" fill="#ef4444" fill-opacity="0.9" stroke="#ffffff" stroke-width="1.8"/>
<circle cx="997.5" cy="745.5" r="6.2" fill="#ef4444" fill-opacity="0.9" stroke="#ffffff" stroke-width="1.8"/>
<circle cx="823.5" cy="898.5" r="6.2" fill="#ef4444" fill-opacity="0.9" stroke="#ffffff" stroke-width="1.8"/>
<circle cx="914.5" cy="898.5" r="6.2" fill="#ef4444" fill-opacity="0.9" stroke="#ffffff" stroke-width="1.8"/>
<circle cx="997.5" cy="898.5" r="6.2" fill="#ef4444" fill-opacity="0.9" stroke="#ffffff" stroke-width="1.8"/>
<g class="shadow"><rect x="1104" y="88" width="168" height="244" rx="12" fill="#ffffff" stroke="#dbe7ef"/></g>
<text x="1128.0" y="122.0" text-anchor="start" font-size="17" font-weight="800" fill="#102030">图例</text>
<rect x="1128" y="144" width="22" height="14" rx="3" fill="#6d5fd7" fill-opacity="0.65" stroke="#d1d5db"/>
<text x="1162.0" y="151.0" text-anchor="start" font-size="12" font-weight="600" fill="#334155">公共道路</text>
<line x1="1128" y1="175" x2="1152" y2="175" stroke="#cfd8e3" stroke-width="3" stroke-opacity="0.72"/>
<text x="1162.0" y="175.0" text-anchor="start" font-size="12" font-weight="600" fill="#334155">专属入口短路</text>
<circle cx="1139" cy="199" r="6" fill="#ef4444" stroke="#ffffff" stroke-width="1.5"/>
<text x="1162.0" y="199.0" text-anchor="start" font-size="12" font-weight="600" fill="#334155">建筑南侧门口</text>
<rect x="1128" y="216" width="22" height="14" rx="3" fill="#7acb82" fill-opacity="0.65" stroke="#d1d5db"/>
<text x="1162.0" y="223.0" text-anchor="start" font-size="12" font-weight="600" fill="#334155">中央公园</text>
<rect x="1128" y="240" width="22" height="14" rx="3" fill="#cbd5e1" fill-opacity="0.65" stroke="#d1d5db"/>
<text x="1162.0" y="247.0" text-anchor="start" font-size="12" font-weight="600" fill="#334155">公共建筑</text>
<rect x="1128" y="264" width="22" height="14" rx="3" fill="#fef3c7" fill-opacity="0.65" stroke="#d1d5db"/>
<text x="1162.0" y="271.0" text-anchor="start" font-size="12" font-weight="600" fill="#334155">餐饮建筑</text>
<rect x="1128" y="288" width="22" height="14" rx="3" fill="#dbeafe" fill-opacity="0.65" stroke="#d1d5db"/>
<text x="1162.0" y="295.0" text-anchor="start" font-size="12" font-weight="600" fill="#334155">公寓</text>
<rect x="1128" y="312" width="22" height="14" rx="3" fill="#e5e7eb" fill-opacity="0.65" stroke="#d1d5db"/>
<text x="1162.0" y="319.0" text-anchor="start" font-size="12" font-weight="600" fill="#334155">别墅</text>
<text x="36.0" y="1062.0" text-anchor="start" font-size="12" font-weight="500" fill="#64748b">说明：这张图用于展示当前路网方案；已同步到 Blender 生成脚本和 shared/campus_rules.json。</text>
</svg>