<svg xmlns="http://www.w3.org/2000/svg" width="1180" height="880" viewBox="0 0 1180 880" role="img" aria-label="智慧园区扩容世界规则 2D 规划图">
  <defs>
    <style>
      .label { font-family: Arial, 'PingFang SC', sans-serif; fill: #1f2937; }
      .muted { fill: #64748b; }
      .small { font-size: 11px; }
      .mid { font-size: 13px; }
      .bold { font-weight: 700; }
      .road-name { font-size: 12px; fill: #334155; font-weight: 700; }
    </style>
    <pattern id="grid" width="12" height="12" patternUnits="userSpaceOnUse">
      <path d="M 12 0 L 0 0 0 12" fill="none" stroke="#d8e0ea" stroke-width="0.5"/>
    </pattern>
    <pattern id="grass" width="24" height="24" patternUnits="userSpaceOnUse">
      <rect width="24" height="24" fill="#cfead3"/>
      <path d="M4 20 C6 14, 8 14, 8 20 M12 21 C14 13, 17 14, 16 21 M19 20 C20 15, 22 16, 22 20" fill="none" stroke="#58a76b" stroke-width="1.2" stroke-linecap="round"/>
    </pattern>
    <filter id="softShadow" x="-20%" y="-20%" width="140%" height="140%">
      <feDropShadow dx="0" dy="3" stdDeviation="3" flood-color="#6b7280" flood-opacity="0.22"/>
    </filter>
    <g id="tree">
      <circle cx="0" cy="0" r="8" fill="#4f9b5f"/>
      <circle cx="-5" cy="4" r="6" fill="#6fbd79"/>
      <circle cx="6" cy="4" r="6" fill="#5aaa68"/>
      <rect x="-1.8" y="6" width="3.6" height="8" rx="1" fill="#8b5a2b"/>
    </g>
    <g id="bench">
      <rect x="-11" y="-4" width="22" height="4" rx="1" fill="#8b5a2b"/>
      <rect x="-11" y="3" width="22" height="4" rx="1" fill="#8b5a2b"/>
      <rect x="-8" y="7" width="2" height="5" fill="#374151"/>
      <rect x="6" y="7" width="2" height="5" fill="#374151"/>
    </g>
    <g id="light">
      <line x1="0" y1="0" x2="0" y2="16" stroke="#64748b" stroke-width="2"/>
      <circle cx="0" cy="-3" r="4.5" fill="#fde68a" stroke="#f59e0b" stroke-width="1.5"/>
    </g>
    <g id="cart">
      <rect x="-8" y="-5" width="16" height="10" rx="3" fill="#2563eb"/>
      <circle cx="-5" cy="5" r="2.2" fill="#111827"/>
      <circle cx="5" cy="5" r="2.2" fill="#111827"/>
    </g>
    <g id="villa">
      <rect x="-18" y="-16" width="36" height="32" rx="3" fill="#b7c7ff" stroke="#7588d8" stroke-width="1.2"/>
      <path d="M-20 -16 L0 -31 L20 -16 Z" fill="#7c8edb"/>
      <rect x="-5" y="-2" width="10" height="18" rx="1.5" fill="#f8fafc" stroke="#94a3b8"/>
      <rect x="-14" y="-9" width="7" height="7" rx="1" fill="#eef7ff"/>
      <rect x="7" y="-9" width="7" height="7" rx="1" fill="#eef7ff"/>
    </g>
    <g id="row-house">
      <rect x="-36" y="-17" width="72" height="34" rx="3" fill="#a5b4fc" stroke="#6875c8" stroke-width="1.2"/>
      <path d="M-38 -17 L-22 -30 L-6 -17 L10 -30 L26 -17 L38 -27 L38 -17 Z" fill="#6574d6"/>
      <line x1="-12" y1="-17" x2="-12" y2="17" stroke="#eef2ff" stroke-width="1.3"/>
      <line x1="12" y1="-17" x2="12" y2="17" stroke="#eef2ff" stroke-width="1.3"/>
      <rect x="-28" y="-4" width="9" height="12" rx="1" fill="#f8fafc"/>
      <rect x="-4" y="-4" width="9" height="12" rx="1" fill="#f8fafc"/>
      <rect x="21" y="-4" width="9" height="12" rx="1" fill="#f8fafc"/>
    </g>
    <g id="crosswalk">
      <rect x="-18" y="-14" width="5" height="28" fill="#f8fafc"/>
      <rect x="-7" y="-14" width="5" height="28" fill="#f8fafc"/>
      <rect x="4" y="-14" width="5" height="28" fill="#f8fafc"/>
      <rect x="15" y="-14" width="5" height="28" fill="#f8fafc"/>
    </g>
  </defs>

  <rect width="1180" height="880" fill="#f5f8fb"/>
  <text x="36" y="44" class="label bold" font-size="26">智慧园区扩容世界规则 2D 规划图</text>
  <text x="36" y="72" class="label muted" font-size="14">规划尺寸：76 x 58 网格；旧场景边界 60 x 45；主干路双车道，居民区用小路，外围和中央公园补足绿化</text>

  <g transform="translate(36 108)">
    <rect x="0" y="0" width="912" height="696" rx="10" fill="#edf7ed" stroke="#b8c4d1" stroke-width="1.5"/>
    <rect x="0" y="0" width="912" height="696" fill="url(#grid)" opacity="0.72"/>
    <rect x="0" y="0" width="720" height="540" fill="none" stroke="#94a3b8" stroke-width="2" stroke-dasharray="7 7"/>
    <text x="18" y="24" class="label muted mid">旧 60 x 45 场景边界</text>

    <rect x="18" y="24" width="876" height="648" rx="24" fill="none" stroke="#98d6a2" stroke-width="26" opacity="0.85"/>
    <g>
      <use href="#tree" x="36" y="28"/><use href="#tree" x="84" y="22"/><use href="#tree" x="132" y="24"/><use href="#tree" x="180" y="22"/>
      <use href="#tree" x="228" y="25"/><use href="#tree" x="276" y="23"/><use href="#tree" x="324" y="25"/><use href="#tree" x="372" y="22"/>
      <use href="#tree" x="420" y="24"/><use href="#tree" x="468" y="23"/><use href="#tree" x="516" y="25"/><use href="#tree" x="564" y="22"/>
      <use href="#tree" x="612" y="24"/><use href="#tree" x="660" y="23"/><use href="#tree" x="708" y="25"/><use href="#tree" x="756" y="22"/>
      <use href="#tree" x="804" y="24"/><use href="#tree" x="852" y="23"/><use href="#tree" x="890" y="42"/>
      <use href="#tree" x="36" y="666"/><use href="#tree" x="84" y="672"/><use href="#tree" x="132" y="670"/><use href="#tree" x="180" y="672"/>
      <use href="#tree" x="228" y="669"/><use href="#tree" x="276" y="671"/><use href="#tree" x="324" y="669"/><use href="#tree" x="372" y="672"/>
      <use href="#tree" x="420" y="670"/><use href="#tree" x="468" y="671"/><use href="#tree" x="516" y="669"/><use href="#tree" x="564" y="672"/>
      <use href="#tree" x="612" y="670"/><use href="#tree" x="660" y="671"/><use href="#tree" x="708" y="669"/><use href="#tree" x="756" y="672"/>
      <use href="#tree" x="804" y="670"/><use href="#tree" x="852" y="671"/><use href="#tree" x="890" y="652"/>
      <use href="#tree" x="24" y="84"/><use href="#tree" x="24" y="132"/><use href="#tree" x="24" y="180"/><use href="#tree" x="24" y="228"/>
      <use href="#tree" x="24" y="276"/><use href="#tree" x="24" y="324"/><use href="#tree" x="24" y="372"/><use href="#tree" x="24" y="420"/>
      <use href="#tree" x="24" y="468"/><use href="#tree" x="24" y="516"/><use href="#tree" x="24" y="564"/><use href="#tree" x="24" y="612"/>
      <use href="#tree" x="888" y="84"/><use href="#tree" x="888" y="132"/><use href="#tree" x="888" y="180"/><use href="#tree" x="888" y="228"/>
      <use href="#tree" x="888" y="276"/><use href="#tree" x="888" y="324"/><use href="#tree" x="888" y="372"/><use href="#tree" x="888" y="420"/>
      <use href="#tree" x="888" y="468"/><use href="#tree" x="888" y="516"/><use href="#tree" x="888" y="564"/><use href="#tree" x="888" y="612"/>
    </g>

    <g opacity="0.95">
      <path d="M102 90 H810 Q846 90 846 126 V570 Q846 606 810 606 H102 Q66 606 66 570 V126 Q66 90 102 90 Z" fill="none" stroke="#b9c7d6" stroke-width="50" stroke-linejoin="round"/>
      <path d="M102 90 H810 Q846 90 846 126 V570 Q846 606 810 606 H102 Q66 606 66 570 V126 Q66 90 102 90 Z" fill="none" stroke="#ffffff" stroke-width="3" stroke-dasharray="20 16" opacity="0.9"/>
      <path d="M102 68 H810 Q868 68 868 126 V570 Q868 628 810 628 H102 Q44 628 44 570 V126 Q44 68 102 68 Z" fill="none" stroke="#e9d8a6" stroke-width="7" stroke-linejoin="round"/>
      <path d="M102 113 H810 Q823 113 823 126 V570 Q823 583 810 583 H102 Q89 583 89 570 V126 Q89 113 102 113 Z" fill="none" stroke="#e9d8a6" stroke-width="7" stroke-linejoin="round"/>

      <rect x="204" y="72" width="54" height="528" rx="6" fill="#b9c7d6"/>
      <line x1="231" y1="72" x2="231" y2="600" stroke="#ffffff" stroke-width="3" stroke-dasharray="18 14"/>
      <rect x="195" y="72" width="5" height="528" fill="#e9d8a6"/>
      <rect x="262" y="72" width="5" height="528" fill="#e9d8a6"/>

      <rect x="444" y="72" width="54" height="528" rx="6" fill="#b9c7d6"/>
      <line x1="471" y1="72" x2="471" y2="600" stroke="#ffffff" stroke-width="3" stroke-dasharray="18 14"/>
      <rect x="435" y="72" width="5" height="528" fill="#e9d8a6"/>
      <rect x="502" y="72" width="5" height="528" fill="#e9d8a6"/>

      <rect x="756" y="72" width="54" height="528" rx="6" fill="#a9bdcf"/>
      <line x1="783" y1="72" x2="783" y2="600" stroke="#ffffff" stroke-width="3" stroke-dasharray="18 14"/>
      <rect x="747" y="72" width="5" height="528" fill="#e9d8a6"/>
      <rect x="814" y="72" width="5" height="528" fill="#e9d8a6"/>

      <rect x="66" y="132" width="780" height="54" rx="6" fill="#b9c7d6"/>
      <line x1="66" y1="159" x2="846" y2="159" stroke="#ffffff" stroke-width="3" stroke-dasharray="18 14"/>
      <rect x="66" y="123" width="780" height="5" fill="#e9d8a6"/>
      <rect x="66" y="190" width="780" height="5" fill="#e9d8a6"/>

      <rect x="66" y="408" width="780" height="54" rx="6" fill="#b9c7d6"/>
      <line x1="66" y1="435" x2="846" y2="435" stroke="#ffffff" stroke-width="3" stroke-dasharray="18 14"/>
      <rect x="66" y="399" width="780" height="5" fill="#e9d8a6"/>
      <rect x="66" y="466" width="780" height="5" fill="#e9d8a6"/>

      <rect x="66" y="552" width="780" height="54" rx="6" fill="#a9bdcf"/>
      <line x1="66" y1="579" x2="846" y2="579" stroke="#ffffff" stroke-width="3" stroke-dasharray="18 14"/>
      <rect x="66" y="543" width="780" height="5" fill="#e9d8a6"/>
      <rect x="66" y="610" width="780" height="5" fill="#e9d8a6"/>
    </g>

    <g opacity="0.98">
      <rect x="78" y="226" width="126" height="22" rx="5" fill="#dce5ef"/>
      <rect x="78" y="322" width="126" height="22" rx="5" fill="#dce5ef"/>
      <rect x="78" y="492" width="126" height="22" rx="5" fill="#dce5ef"/>
      <rect x="114" y="92" width="22" height="320" rx="5" fill="#dce5ef"/>
      <rect x="162" y="92" width="22" height="320" rx="5" fill="#dce5ef"/>
      <rect x="342" y="92" width="22" height="320" rx="5" fill="#dce5ef"/>
      <rect x="594" y="462" width="22" height="114" rx="5" fill="#dce5ef"/>
      <rect x="666" y="462" width="22" height="114" rx="5" fill="#dce5ef"/>
      <line x1="78" y1="237" x2="204" y2="237" stroke="#ffffff" stroke-width="2" stroke-dasharray="10 8"/>
      <line x1="78" y1="333" x2="204" y2="333" stroke="#ffffff" stroke-width="2" stroke-dasharray="10 8"/>
      <line x1="78" y1="503" x2="204" y2="503" stroke="#ffffff" stroke-width="2" stroke-dasharray="10 8"/>
    </g>

    <g opacity="0.95">
      <use href="#crosswalk" x="231" y="159"/>
      <use href="#crosswalk" x="471" y="159"/>
      <use href="#crosswalk" x="783" y="159"/>
      <use href="#crosswalk" x="231" y="435"/>
      <use href="#crosswalk" x="471" y="435"/>
      <use href="#crosswalk" x="783" y="435"/>
      <g transform="translate(231 579) rotate(90)"><use href="#crosswalk"/></g>
      <g transform="translate(471 579) rotate(90)"><use href="#crosswalk"/></g>
      <g transform="translate(783 579) rotate(90)"><use href="#crosswalk"/></g>
    </g>

    <text x="696" y="101" class="label road-name">外围双车道回环</text>
    <text x="760" y="137" class="label road-name">新增东侧主干道</text>
    <text x="72" y="578" class="label road-name">新增南侧主干道</text>
    <text x="82" y="224" class="label road-name">居民区小路</text>

    <g font-family="Arial, 'PingFang SC', sans-serif">
      <rect x="48" y="42" width="150" height="84" rx="10" fill="url(#grass)" stroke="#9bd3a4"/>
      <text x="124" y="116" text-anchor="middle" class="label small bold">别墅区：近距离成组</text>
      <use href="#villa" x="84" y="78"/>
      <use href="#villa" x="132" y="78"/>
      <use href="#villa" x="180" y="78"/>

      <rect x="48" y="198" width="150" height="174" rx="10" fill="url(#grass)" stroke="#9bd3a4"/>
      <text x="124" y="364" text-anchor="middle" class="label small bold">排屋区：按格子排列</text>
      <use href="#row-house" x="120" y="280"/>
      <use href="#row-house" x="120" y="348"/>

      <rect x="48" y="474" width="150" height="90" rx="10" fill="url(#grass)" stroke="#9bd3a4"/>
      <text x="124" y="555" text-anchor="middle" class="label small bold">南侧别墅组</text>
      <use href="#villa" x="84" y="516"/>
      <use href="#villa" x="132" y="516"/>
      <use href="#villa" x="180" y="516"/>

      <rect x="90" y="612" width="210" height="54" rx="10" fill="url(#grass)" stroke="#9bd3a4"/>
      <text x="195" y="656" text-anchor="middle" class="label small bold">南侧排屋补齐空区</text>
      <use href="#row-house" x="144" y="634"/>
      <use href="#row-house" x="240" y="634"/>
    </g>

    <g filter="url(#softShadow)" font-family="Arial, 'PingFang SC', sans-serif">
      <rect x="264" y="204" width="138" height="126" rx="18" fill="url(#grass)" stroke="#8ecf9b" stroke-width="2"/>
      <rect x="294" y="234" width="78" height="66" rx="18" fill="#f2deb0" stroke="#d8b566" stroke-width="1.5"/>
      <path d="M333 239 C354 247, 363 271, 350 288 C331 310, 297 294, 301 267 C304 249, 317 241, 333 239 Z" fill="#a7d7ee" stroke="#5aa8c7" stroke-width="1"/>
      <text x="333" y="276" text-anchor="middle" class="label small bold">中央公园</text>
      <use href="#bench" x="304" y="316"/>
      <use href="#bench" x="362" y="316"/>
      <use href="#tree" x="273" y="214"/><use href="#tree" x="303" y="204"/><use href="#tree" x="333" y="199"/><use href="#tree" x="363" y="204"/><use href="#tree" x="393" y="214"/>
      <use href="#tree" x="265" y="246"/><use href="#tree" x="265" y="282"/><use href="#tree" x="273" y="318"/>
      <use href="#tree" x="401" y="246"/><use href="#tree" x="401" y="282"/><use href="#tree" x="393" y="318"/>
      <use href="#tree" x="303" y="330"/><use href="#tree" x="333" y="336"/><use href="#tree" x="363" y="330"/>
    </g>

    <g filter="url(#softShadow)" font-family="Arial, 'PingFang SC', sans-serif">
      <rect x="276" y="108" width="102" height="72" rx="6" fill="#f97316"/>
      <text x="327" y="139" text-anchor="middle" font-size="13" fill="#fff7ed" font-weight="700">韩式饭店</text>
      <text x="327" y="158" text-anchor="middle" font-size="11" fill="#fff7ed">靠近小区入口</text>
      <rect x="282" y="182" width="90" height="28" rx="5" fill="#f6d9b6" stroke="#d79b63"/>
      <use href="#bench" x="300" y="198"/>
      <use href="#bench" x="348" y="198"/>
      <path d="M276 106 H378 V214 H276 Z" fill="none" stroke="#8b5a2b" stroke-width="4" stroke-linecap="round" stroke-dasharray="8 8"/>

      <rect x="528" y="48" width="96" height="78" rx="6" fill="#80cfff"/>
      <text x="576" y="80" text-anchor="middle" font-size="12" fill="#0f172a" font-weight="700">住户服务</text>
      <text x="576" y="98" text-anchor="middle" font-size="12" fill="#0f172a" font-weight="700">大楼</text>
      <rect x="642" y="48" width="84" height="78" rx="6" fill="#8dd8ca"/>
      <text x="684" y="91" text-anchor="middle" font-size="12" fill="#0f172a" font-weight="700">党群中心</text>
      <rect x="528" y="222" width="84" height="72" rx="6" fill="#71b7ef"/>
      <text x="570" y="262" text-anchor="middle" font-size="12" fill="#0f172a" font-weight="700">物业中心</text>
      <rect x="624" y="210" width="114" height="84" rx="6" fill="#6fd7b7"/>
      <text x="681" y="253" text-anchor="middle" font-size="13" fill="#064e3b" font-weight="700">快递服务中心</text>
      <rect x="528" y="324" width="96" height="72" rx="6" fill="#f3c46d"/>
      <text x="576" y="364" text-anchor="middle" font-size="12" fill="#78350f" font-weight="700">运动健身中心</text>
      <rect x="642" y="324" width="96" height="72" rx="6" fill="#7db7f8"/>
      <text x="690" y="364" text-anchor="middle" font-size="13" fill="#0f172a" font-weight="700">综合楼</text>
      <rect x="642" y="492" width="84" height="48" rx="6" fill="#e79a8d"/>
      <text x="684" y="520" text-anchor="middle" font-size="12" fill="#7f1d1d" font-weight="700">发电间</text>

      <rect x="528" y="612" width="210" height="54" rx="10" fill="url(#grass)" stroke="#9bd3a4"/>
      <text x="633" y="653" text-anchor="middle" class="label small bold">南侧生活绿地 + 排屋</text>
      <use href="#row-house" x="580" y="635"/>
      <use href="#row-house" x="680" y="635"/>
    </g>

    <g font-family="Arial, 'PingFang SC', sans-serif" filter="url(#softShadow)">
      <rect x="816" y="186" width="60" height="72" rx="6" fill="#93c5fd"/>
      <text x="846" y="217" text-anchor="middle" font-size="12" fill="#082f49" font-weight="700">东侧</text>
      <text x="846" y="235" text-anchor="middle" font-size="12" fill="#082f49" font-weight="700">服务楼</text>
      <rect x="816" y="324" width="60" height="72" rx="6" fill="#a7f3d0"/>
      <text x="846" y="363" text-anchor="middle" font-size="12" fill="#064e3b" font-weight="700">生活配套</text>
      <rect x="816" y="474" width="60" height="66" rx="6" fill="#d8b4fe"/>
      <text x="846" y="511" text-anchor="middle" font-size="12" fill="#581c87" font-weight="700">社区驿站</text>
    </g>

    <g>
      <use href="#tree" x="520" y="140"/><use href="#tree" x="620" y="140"/><use href="#tree" x="738" y="140"/>
      <use href="#tree" x="520" y="310"/><use href="#tree" x="738" y="310"/>
      <use href="#tree" x="520" y="402"/><use href="#tree" x="626" y="402"/><use href="#tree" x="738" y="402"/>
      <use href="#tree" x="540" y="584"/><use href="#tree" x="594" y="584"/><use href="#tree" x="648" y="584"/><use href="#tree" x="702" y="584"/>
      <use href="#tree" x="274" y="382"/><use href="#tree" x="324" y="382"/><use href="#tree" x="374" y="382"/>
      <use href="#tree" x="274" y="608"/><use href="#tree" x="324" y="608"/><use href="#tree" x="374" y="608"/>

      <use href="#bench" x="306" y="96"/>
      <use href="#bench" x="354" y="96"/>
      <use href="#bench" x="828" y="274"/>
      <use href="#bench" x="864" y="274"/>

      <use href="#light" x="90" y="120"/><use href="#light" x="231" y="120"/><use href="#light" x="471" y="120"/><use href="#light" x="783" y="120"/>
      <use href="#light" x="90" y="392"/><use href="#light" x="231" y="392"/><use href="#light" x="471" y="392"/><use href="#light" x="783" y="392"/>
      <use href="#light" x="90" y="532"/><use href="#light" x="231" y="532"/><use href="#light" x="471" y="532"/><use href="#light" x="783" y="532"/>
      <use href="#light" x="231" y="226"/><use href="#light" x="471" y="226"/><use href="#light" x="783" y="226"/>
    </g>

    <g fill="none" stroke="#8b5a2b" stroke-width="4" stroke-linecap="round" stroke-dasharray="8 8">
      <path d="M620 202 L620 304"/>
      <path d="M742 206 L742 304"/>
      <path d="M522 600 H742"/>
      <path d="M814 178 V262 H878"/>
    </g>
    <text x="620" y="196" class="label small bold" fill="#8b5a2b">装卸边界栅栏</text>
    <text x="818" y="292" class="label small bold" fill="#8b5a2b">外摆围栏</text>

    <g font-family="Arial, 'PingFang SC', sans-serif" font-size="11" fill="#0f172a" font-weight="700">
      <circle cx="84" cy="134" r="5" fill="#ef4444"/><text x="94" y="138">别墅区收件点</text>
      <circle cx="120" cy="248" r="5" fill="#ef4444"/><text x="130" y="252">排屋收件点</text>
      <circle cx="327" cy="220" r="5" fill="#ef4444"/><text x="337" y="224">韩式饭店收件点</text>
      <circle cx="681" cy="300" r="5" fill="#10b981"/><text x="691" y="304">快递装货口</text>
      <circle cx="144" cy="588" r="5" fill="#ef4444"/><text x="154" y="592">南侧住宅收件点</text>
      <circle cx="846" cy="462" r="5" fill="#ef4444"/><text x="856" y="466">社区驿站收件点</text>
    </g>
  </g>

  <g transform="translate(982 108)" font-family="Arial, 'PingFang SC', sans-serif">
    <rect x="0" y="0" width="162" height="696" rx="10" fill="#ffffff" stroke="#d6dee8"/>
    <text x="18" y="34" font-size="17" font-weight="700" fill="#1f2937">图例</text>

    <rect x="18" y="58" width="22" height="18" rx="3" fill="#b9c7d6"/>
    <text x="50" y="72" font-size="13" fill="#334155">双车道主路</text>
    <rect x="18" y="92" width="22" height="18" rx="3" fill="#dce5ef"/>
    <text x="50" y="106" font-size="13" fill="#334155">居民区小路</text>
    <rect x="18" y="126" width="22" height="18" rx="3" fill="#e9d8a6"/>
    <text x="50" y="140" font-size="13" fill="#334155">人行道</text>
    <rect x="18" y="160" width="22" height="18" rx="3" fill="url(#grass)"/>
    <text x="50" y="174" font-size="13" fill="#334155">草地 grass.glb</text>
    <use href="#tree" x="29" y="204"/>
    <text x="50" y="208" font-size="13" fill="#334155">树 pixel_tree.glb</text>
    <use href="#bench" x="29" y="244"/>
    <text x="50" y="248" font-size="13" fill="#334155">长椅 benches.glb</text>
    <use href="#light" x="29" y="284"/>
    <text x="50" y="284" font-size="13" fill="#334155">路灯 pole_lights.glb</text>
    <line x1="18" y1="320" x2="42" y2="320" stroke="#8b5a2b" stroke-width="4" stroke-linecap="round" stroke-dasharray="7 6"/>
    <text x="50" y="324" font-size="13" fill="#334155">栅栏 fences.glb</text>
    <rect x="18" y="348" width="22" height="18" rx="3" fill="#f97316"/>
    <text x="50" y="362" font-size="13" fill="#334155">韩式饭店</text>
    <use href="#villa" x="29" y="396"/>
    <text x="58" y="400" font-size="13" fill="#334155">别墅</text>
    <use href="#row-house" x="29" y="444"/>
    <text x="78" y="448" font-size="13" fill="#334155">排屋</text>

    <text x="18" y="496" font-size="15" font-weight="700" fill="#1f2937">布局重点</text>
    <text x="18" y="522" font-size="12" fill="#475569">外围树带形成边界</text>
    <text x="18" y="544" font-size="12" fill="#475569">中央公园环树</text>
    <text x="18" y="566" font-size="12" fill="#475569">饭店靠近小区入口</text>
    <text x="18" y="588" font-size="12" fill="#475569">底部补住宅和绿地</text>

    <text x="18" y="630" font-size="15" font-weight="700" fill="#1f2937">暂不使用</text>
    <text x="18" y="656" font-size="12" fill="#475569">low_poly_city.glb</text>
  </g>
</svg>
